<?xml version="1.0" encoding="UTF-8" standalone="no"?>
<svg
   xmlns:dc="http://purl.org/dc/elements/1.1/"
   xmlns:cc="http://creativecommons.org/ns#"
   xmlns:rdf="http://www.w3.org/1999/02/22-rdf-syntax-ns#"
   xmlns:svg="http://www.w3.org/2000/svg"
   xmlns="http://www.w3.org/2000/svg"
   xmlns:sodipodi="http://sodipodi.sourceforge.net/DTD/sodipodi-0.dtd"
   xmlns:inkscape="http://www.inkscape.org/namespaces/inkscape"
   width="800"
   height="800"
   viewBox="0 0 211.66666 211.66667"
   version="1.1"
   id="svg8"
   inkscape:version="1.0.2 (e86c870879, 2021-01-15, custom)"
   sodipodi:docname="daia_logo.svg">
  <defs
     id="defs2">
    <marker
       style="overflow:visible"
       id="marker1229"
       refX="0.0"
       refY="0.0"
       orient="auto"
       inkscape:stockid="DotL"
       inkscape:isstock="true">
      <path
         transform="scale(0.8) translate(7.4, 1)"
         style="fill-rule:evenodd;stroke:#000000;stroke-width:1.0pt"
         d="M -2.5,-1.0 C -2.5,1.7600000 -4.7400000,4.0 -7.5,4.0 C -10.260000,4.0 -12.5,1.7600000 -12.5,-1.0 C -12.5,-3.7600000 -10.260000,-6.0 -7.5,-6.0 C -4.7400000,-6.0 -2.5,-3.7600000 -2.5,-1.0 z "
         id="path1227" />
    </marker>
    <marker
       style="overflow:visible"
       id="SquareL"
       refX="0.0"
       refY="0.0"
       orient="auto"
       inkscape:stockid="SquareL"
       inkscape:isstock="true">
      <path
         transform="scale(0.8)"
         style="fill-rule:evenodd;stroke:#000000;stroke-width:1.0pt"
         d="M -5.0,-5.0 L -5.0,5.0 L 5.0,5.0 L 5.0,-5.0 L -5.0,-5.0 z "
         id="path993" />
    </marker>
    <marker
       style="overflow:visible"
       id="SquareM"
       refX="0.0"
       refY="0.0"
       orient="auto"
       inkscape:stockid="SquareM"
       inkscape:isstock="true">
      <path
         transform="scale(0.4)"
         style="fill-rule:evenodd;stroke:#000000;stroke-width:1.0pt"
         d="M -5.0,-5.0 L -5.0,5.0 L 5.0,5.0 L 5.0,-5.0 L -5.0,-5.0 z "
         id="path996" />
    </marker>
    <marker
       style="overflow:visible"
       id="DotL"
       refX="0.0"
       refY="0.0"
       orient="auto"
       inkscape:stockid="DotL"
       inkscape:isstock="true">
      <path
         transform="scale(0.8) translate(7.4, 1)"
         style="fill-rule:evenodd;stroke:#000000;stroke-width:1.0pt"
         d="M -2.5,-1.0 C -2.5,1.7600000 -4.7400000,4.0 -7.5,4.0 C -10.260000,4.0 -12.5,1.7600000 -12.5,-1.0 C -12.5,-3.7600000 -10.260000,-6.0 -7.5,-6.0 C -4.7400000,-6.0 -2.5,-3.7600000 -2.5,-1.0 z "
         id="path984" />
    </marker>
    <inkscape:perspective
       sodipodi:type="inkscape:persp3d"
       inkscape:vp_x="0 : 105.83334 : 1"
       inkscape:vp_y="0 : 1000 : 0"
       inkscape:vp_z="211.66666 : 105.83334 : 1"
       inkscape:persp3d-origin="105.83333 : 70.555557 : 1"
       id="perspective18" />
    <rect
       x="64.255952"
       y="57.830357"
       width="257.02381"
       height="131.53571"
       id="rect12" />
  </defs>
  <sodipodi:namedview
     id="base"
     pagecolor="#ffffff"
     bordercolor="#666666"
     borderopacity="1.0"
     inkscape:pageopacity="0.0"
     inkscape:pageshadow="2"
     inkscape:zoom="1.4"
     inkscape:cx="270.49285"
     inkscape:cy="359.26471"
     inkscape:document-units="px"
     inkscape:current-layer="layer2"
     inkscape:document-rotation="0"
     showgrid="false"
     inkscape:window-width="1920"
     inkscape:window-height="1017"
     inkscape:window-x="-8"
     inkscape:window-y="-8"
     inkscape:window-maximized="1"
     units="px" />
  <metadata
     id="metadata5">
    <rdf:RDF>
      <cc:Work
         rdf:about="">
        <dc:format>image/svg+xml</dc:format>
        <dc:type
           rdf:resource="http://purl.org/dc/dcmitype/StillImage" />
        <dc:title />
      </cc:Work>
    </rdf:RDF>
  </metadata>
  <g
     inkscape:label="text"
     inkscape:groupmode="layer"
     id="layer1">
    <text
       xml:space="preserve"
       id="text10"
       style="font-style:normal;font-weight:normal;font-size:10.5833px;line-height:0;font-family:sans-serif;white-space:pre;shape-inside:url(#rect12);fill:#000055;fill-opacity:1;stroke:none;"
       transform="translate(14.892265,28.401464)"><tspan
         x="64.255859"
         y="75.853711"><tspan
           style="font-style:normal;font-variant:normal;font-weight:bold;font-stretch:normal;font-size:19.7556px;line-height:1.25;font-family:Verdana;-inkscape-font-specification:'Verdana Bold';baseline-shift:baseline;fill:#000055">Daia</tspan></tspan></text>
    <rect
       style="fill:#000055;stroke-width:0.264583"
       id="rect34"
       width="3.7797618"
       height="63.122021"
       x="68.111343"
       y="65.389877" />
    <text
       xml:space="preserve"
       style="font-style:normal;font-variant:normal;font-weight:bold;font-stretch:normal;font-size:10.5833px;line-height:1.25;font-family:sans-serif;-inkscape-font-specification:'sans-serif Bold';fill:#808080;fill-opacity:0.992157;stroke:none;stroke-width:0.264583"
       x="109.1973"
       y="120.72557"
       id="text902"><tspan
         sodipodi:role="line"
         id="tspan900"
         x="109.1973"
         y="120.72557"
         style="font-style:normal;font-variant:normal;font-weight:bold;font-stretch:normal;font-size:16.9333px;font-family:sans-serif;-inkscape-font-specification:'sans-serif Bold';fill:#808080;fill-opacity:0.992157;stroke-width:0.264583"> Systems</tspan></text>
  </g>
  <g
     inkscape:groupmode="layer"
     id="layer2"
     inkscape:label="logo">
    <g
       id="rose_t">
      <animateTransform attributeName="transform"
      attributeType="XML"
      type="rotate"
      from="0 36 78"
      to="360 37 79"
      dur="10s"
      repeatCount="indefinite"/>
      <path
         sodipodi:type="star"
         style="fill:#000055;fill-opacity:1;stroke:#000055;stroke-width:0.314603;stroke-miterlimit:4;stroke-dasharray:none;stroke-opacity:1"
         id="path1378-8-8-8"
         sodipodi:sides="12"
         sodipodi:cx="42.122334"
         sodipodi:cy="78.659698"
         sodipodi:r1="6.5057588"
         sodipodi:r2="7.3098412"
         sodipodi:arg1="0.77335055"
         sodipodi:arg2="1.0351499"
         inkscape:flatsided="false"
         inkscape:rounded="0.22"
         inkscape:randomized="0"
         inkscape:transform-center-x="0.50297589"
         inkscape:transform-center-y="-0.43186588"
         d="m 46.777687,83.20421 c -0.303,0.31039 -0.551422,1.520113 -0.924432,1.741505 -0.373011,0.221392 -1.553922,-0.139983 -1.971523,-0.02268 -0.417601,0.117306 -1.237602,1.040746 -1.671334,1.045972 -0.433732,0.0052 -1.275745,-0.89819 -1.69605,-1.005401 -0.420306,-0.10721 -1.592168,0.282512 -1.970404,0.07017 -0.378236,-0.21234 -0.655732,-1.415727 -0.966122,-1.718727 -0.31039,-0.303 -1.520113,-0.551422 -1.741505,-0.924432 -0.221392,-0.373011 0.139983,-1.553922 0.02268,-1.971523 -0.117306,-0.417601 -1.040746,-1.237602 -1.045972,-1.671334 -0.0052,-0.433732 0.89819,-1.275745 1.005401,-1.69605 0.10721,-0.420306 -0.282512,-1.592168 -0.07017,-1.970404 0.21234,-0.378236 1.415727,-0.655732 1.718727,-0.966122 0.303,-0.31039 0.551422,-1.520113 0.924432,-1.741505 0.373011,-0.221392 1.553922,0.139983 1.971523,0.02268 0.417601,-0.117306 1.237602,-1.040746 1.671334,-1.045972 0.433732,-0.0052 1.275745,0.89819 1.69605,1.005401 0.420306,0.10721 1.592168,-0.282512 1.970404,-0.07017 0.378236,0.21234 0.655732,1.415727 0.966122,1.718727 0.31039,0.303 1.520113,0.551422 1.741505,0.924432 0.221392,0.373011 -0.139983,1.553922 -0.02268,1.971523 0.117306,0.417601 1.040747,1.237602 1.045972,1.671334 0.0052,0.433732 -0.89819,1.275745 -1.005401,1.69605 -0.10721,0.420306 0.282512,1.592168 0.07017,1.970404 -0.21234,0.378236 -1.415727,0.655732 -1.718727,0.966122 z" />
      <path
         sodipodi:type="star"
         style="fill:#000055;fill-opacity:1;stroke:#000055;stroke-width:0.314603;stroke-miterlimit:4;stroke-dasharray:none;stroke-opacity:1"
         id="path1378-8-8-85"
         sodipodi:sides="12"
         sodipodi:cx="31.476141"
         sodipodi:cy="78.739143"
         sodipodi:r1="6.5057588"
         sodipodi:r2="7.3098412"
         sodipodi:arg1="0.77335055"
         sodipodi:arg2="1.0351499"
         inkscape:flatsided="false"
         inkscape:rounded="0.22"
         inkscape:randomized="0"
         inkscape:transform-center-x="0.50297677"
         inkscape:transform-center-y="-0.43185961"
         d="m 36.131494,83.283655 c -0.303,0.31039 -0.551422,1.520113 -0.924432,1.741505 -0.37301,0.221392 -1.553922,-0.139984 -1.971523,-0.02268 -0.4176,0.117306 -1.237602,1.040746 -1.671334,1.045972 -0.433732,0.0052 -1.275744,-0.89819 -1.69605,-1.005401 -0.420305,-0.10721 -1.592168,0.282512 -1.970403,0.07017 -0.378236,-0.21234 -0.655732,-1.415728 -0.966122,-1.718727 -0.31039,-0.303 -1.520114,-0.551422 -1.741506,-0.924432 -0.221391,-0.373011 0.139984,-1.553923 0.02268,-1.971523 -0.117306,-0.417601 -1.040746,-1.237602 -1.045972,-1.671334 -0.0052,-0.433733 0.898191,-1.275745 1.005401,-1.69605 0.107211,-0.420306 -0.282511,-1.592168 -0.07017,-1.970404 0.212341,-0.378236 1.415728,-0.655732 1.718728,-0.966122 0.303,-0.31039 0.551422,-1.520114 0.924432,-1.741505 0.37301,-0.221392 1.553922,0.139983 1.971523,0.02268 0.4176,-0.117305 1.237602,-1.040746 1.671334,-1.045971 0.433732,-0.0052 1.275744,0.89819 1.69605,1.005401 0.420305,0.10721 1.592168,-0.282512 1.970403,-0.07017 0.378236,0.21234 0.655732,1.415727 0.966122,1.718727 0.31039,0.303 1.520114,0.551422 1.741506,0.924432 0.221391,0.37301 -0.139984,1.553922 -0.02268,1.971523 0.117306,0.417601 1.040746,1.237602 1.045972,1.671334 0.0052,0.433732 -0.898191,1.275744 -1.005401,1.69605 -0.107211,0.420306 0.282511,1.592168 0.07017,1.970404 -0.212341,0.378236 -1.415728,0.655732 -1.718728,0.966122 z" />
      <path
         sodipodi:type="star"
         style="fill:#818181;fill-opacity:1;stroke:#818181;stroke-width:0.314603;stroke-miterlimit:4;stroke-dasharray:none;stroke-opacity:1"
         id="path1378-8-8"
         sodipodi:sides="12"
         sodipodi:cx="36.753681"
         sodipodi:cy="84.038498"
         sodipodi:r1="6.5057588"
         sodipodi:r2="7.3098412"
         sodipodi:arg1="0.77335055"
         sodipodi:arg2="1.0351499"
         inkscape:flatsided="false"
         inkscape:rounded="0.22"
         inkscape:randomized="0"
         inkscape:transform-center-x="0.50297543"
         inkscape:transform-center-y="-0.43186006"
         d="m 41.409034,88.583009 c -0.302999,0.31039 -0.551421,1.520114 -0.924432,1.741506 -0.37301,0.221391 -1.553922,-0.139984 -1.971522,-0.02268 -0.417601,0.117306 -1.237602,1.040746 -1.671335,1.045972 -0.433732,0.0052 -1.275744,-0.898191 -1.69605,-1.005401 -0.420305,-0.107211 -1.592167,0.282511 -1.970403,0.07017 -0.378236,-0.212341 -0.655732,-1.415728 -0.966122,-1.718728 -0.31039,-0.303 -1.520114,-0.551422 -1.741505,-0.924432 -0.221392,-0.37301 0.139983,-1.553922 0.02268,-1.971523 -0.117306,-0.4176 -1.040746,-1.237602 -1.045971,-1.671334 -0.0052,-0.433732 0.89819,-1.275744 1.0054,-1.69605 0.107211,-0.420305 -0.282511,-1.592168 -0.07017,-1.970403 0.212341,-0.378236 1.415728,-0.655732 1.718728,-0.966122 0.303,-0.310391 0.551422,-1.520114 0.924432,-1.741506 0.37301,-0.221391 1.553922,0.139984 1.971523,0.02268 0.4176,-0.117306 1.237602,-1.040746 1.671334,-1.045972 0.433732,-0.0052 1.275744,0.898191 1.69605,1.005401 0.420305,0.107211 1.592168,-0.282511 1.970404,-0.07017 0.378236,0.212341 0.655731,1.415728 0.966122,1.718728 0.31039,0.303 1.520113,0.551421 1.741505,0.924432 0.221391,0.37301 -0.139984,1.553922 -0.02268,1.971523 0.117306,0.4176 1.040746,1.237602 1.045972,1.671334 0.0052,0.433732 -0.89819,1.275744 -1.005401,1.69605 -0.10721,0.420305 0.282512,1.592167 0.07017,1.970403 -0.21234,0.378236 -1.415728,0.655732 -1.718728,0.966122 z" />
      <path
         sodipodi:type="star"
         style="fill:#000055;fill-opacity:1;stroke:#000055;stroke-width:0.314603;stroke-miterlimit:4;stroke-dasharray:none;stroke-opacity:1"
         id="path1378-8"
         sodipodi:sides="12"
         sodipodi:cx="36.753681"
         sodipodi:cy="73.252129"
         sodipodi:r1="6.5057588"
         sodipodi:r2="7.3098412"
         sodipodi:arg1="0.77335055"
         sodipodi:arg2="1.0351499"
         inkscape:flatsided="false"
         inkscape:rounded="0.22"
         inkscape:randomized="0"
         inkscape:transform-center-x="0.50297543"
         inkscape:transform-center-y="-0.43186063"
         d="m 41.409034,77.79664 c -0.302999,0.31039 -0.551421,1.520114 -0.924432,1.741505 -0.37301,0.221392 -1.553922,-0.139983 -1.971522,-0.02268 -0.417601,0.117305 -1.237602,1.040746 -1.671335,1.045971 -0.433732,0.0052 -1.275744,-0.89819 -1.69605,-1.005401 -0.420305,-0.10721 -1.592167,0.282512 -1.970403,0.07017 -0.378236,-0.21234 -0.655732,-1.415727 -0.966122,-1.718727 -0.31039,-0.303 -1.520114,-0.551422 -1.741505,-0.924432 -0.221392,-0.37301 0.139983,-1.553922 0.02268,-1.971523 -0.117306,-0.417601 -1.040746,-1.237602 -1.045971,-1.671334 -0.0052,-0.433732 0.89819,-1.275744 1.0054,-1.69605 0.107211,-0.420306 -0.282511,-1.592168 -0.07017,-1.970404 0.212341,-0.378236 1.415728,-0.655732 1.718728,-0.966122 0.303,-0.31039 0.551422,-1.520113 0.924432,-1.741505 0.37301,-0.221392 1.553922,0.139984 1.971523,0.02268 0.4176,-0.117306 1.237602,-1.040746 1.671334,-1.045972 0.433732,-0.0052 1.275744,0.89819 1.69605,1.005401 0.420305,0.10721 1.592168,-0.282512 1.970404,-0.07017 0.378236,0.21234 0.655731,1.415728 0.966122,1.718727 0.31039,0.303 1.520113,0.551422 1.741505,0.924432 0.221391,0.373011 -0.139984,1.553923 -0.02268,1.971523 0.117306,0.417601 1.040746,1.237602 1.045972,1.671334 0.0052,0.433733 -0.89819,1.275745 -1.005401,1.69605 -0.10721,0.420306 0.282512,1.592168 0.07017,1.970404 -0.21234,0.378236 -1.415728,0.655732 -1.718728,0.966122 z" />
      <path
         sodipodi:type="star"
         style="fill:#ffffff;fill-opacity:0.99;stroke:#808080;stroke-width:0.314603;stroke-miterlimit:4;stroke-dasharray:none;stroke-opacity:1"
         id="path1378"
         sodipodi:sides="12"
         sodipodi:cx="36.461544"
         sodipodi:cy="78.697159"
         sodipodi:r1="6.5057588"
         sodipodi:r2="7.3098412"
         sodipodi:arg1="0.77335055"
         sodipodi:arg2="1.0351499"
         inkscape:flatsided="false"
         inkscape:rounded="0.22"
         inkscape:randomized="0"
         inkscape:transform-center-x="0.50297567"
         inkscape:transform-center-y="-0.43186486"
         d="m 41.116897,83.24167 c -0.303,0.31039 -0.551422,1.520114 -0.924432,1.741505 -0.37301,0.221392 -1.553922,-0.139983 -1.971523,-0.02268 -0.4176,0.117306 -1.237602,1.040746 -1.671334,1.045971 -0.433732,0.0052 -1.275744,-0.89819 -1.69605,-1.0054 -0.420305,-0.107211 -1.592167,0.282511 -1.970403,0.07017 -0.378236,-0.212341 -0.655732,-1.415728 -0.966122,-1.718728 -0.31039,-0.303 -1.520114,-0.551422 -1.741506,-0.924432 -0.221391,-0.37301 0.139984,-1.553922 0.02268,-1.971523 -0.117306,-0.4176 -1.040746,-1.237602 -1.045972,-1.671334 -0.0052,-0.433732 0.898191,-1.275744 1.005401,-1.69605 0.107211,-0.420306 -0.282511,-1.592168 -0.07017,-1.970404 0.212341,-0.378236 1.415728,-0.655731 1.718728,-0.966122 0.303,-0.31039 0.551422,-1.520113 0.924432,-1.741505 0.37301,-0.221391 1.553922,0.139984 1.971523,0.02268 0.4176,-0.117306 1.237602,-1.040746 1.671334,-1.045972 0.433732,-0.0052 1.275744,0.89819 1.69605,1.005401 0.420305,0.10721 1.592168,-0.282512 1.970403,-0.07017 0.378236,0.21234 0.655732,1.415728 0.966122,1.718728 0.310391,0.302999 1.520114,0.551421 1.741506,0.924432 0.221391,0.37301 -0.139984,1.553922 -0.02268,1.971522 0.117306,0.417601 1.040746,1.237602 1.045972,1.671335 0.0052,0.433732 -0.898191,1.275744 -1.005401,1.69605 -0.107211,0.420305 0.282511,1.592167 0.07017,1.970403 -0.212341,0.378236 -1.415728,0.655732 -1.718728,0.966122 z" />
      <ellipse
         style="fill:#818181;fill-opacity:1;stroke:#808080;stroke-width:0.341084;stroke-miterlimit:4;stroke-dasharray:none;stroke-opacity:1"
         id="path1380"
         cx="36.461552"
         cy="78.892593"
         rx="1.7215592"
         ry="1.6202909"
         inkscape:transform-center-x="0.089309702"
         inkscape:transform-center-y="-0.17861122" />
    </g>
    <g
       id="rose_l">
      <animateTransform attributeName="transform"
attributeType="XML"
type="rotate"
from="0 23 97"
to="360 24 98"
dur="10s"
repeatCount="indefinite"/>
      <path
         sodipodi:type="star"
         style="fill:#000055;fill-opacity:1;stroke:#000055;stroke-width:0.314603;stroke-miterlimit:4;stroke-dasharray:none;stroke-opacity:1"
         id="path1378-8-8-81"
         sodipodi:sides="12"
         sodipodi:cx="23.865347"
         sodipodi:cy="102.30723"
         sodipodi:r1="6.5057588"
         sodipodi:r2="7.3098412"
         sodipodi:arg1="0.77335055"
         sodipodi:arg2="1.0351499"
         inkscape:flatsided="false"
         inkscape:rounded="0.22"
         inkscape:randomized="0"
         inkscape:transform-center-x="0.50297543"
         inkscape:transform-center-y="-0.43186006"
         d="m 28.5207,106.85174 c -0.303,0.31039 -0.551422,1.52011 -0.924432,1.7415 -0.37301,0.2214 -1.553922,-0.13998 -1.971523,-0.0227 -0.4176,0.1173 -1.237602,1.04074 -1.671334,1.04597 -0.433732,0.005 -1.275744,-0.89819 -1.69605,-1.0054 -0.420305,-0.10721 -1.592168,0.28251 -1.970404,0.0702 -0.378235,-0.21234 -0.655731,-1.41573 -0.966121,-1.71873 -0.310391,-0.303 -1.520114,-0.55142 -1.741506,-0.92443 -0.221391,-0.37301 0.139984,-1.55392 0.02268,-1.97152 -0.117306,-0.4176 -1.040746,-1.23761 -1.045972,-1.67134 -0.0052,-0.43373 0.898191,-1.27574 1.005401,-1.69605 0.107211,-0.4203 -0.282511,-1.592165 -0.07017,-1.970401 0.212341,-0.378236 1.415728,-0.655732 1.718728,-0.966122 0.303,-0.31039 0.551421,-1.520114 0.924432,-1.741505 0.37301,-0.221392 1.553922,0.139983 1.971522,0.02268 0.417601,-0.117306 1.237602,-1.040746 1.671335,-1.045972 0.433732,-0.0052 1.275744,0.898191 1.69605,1.005401 0.420305,0.107211 1.592167,-0.282511 1.970403,-0.07017 0.378236,0.212341 0.655732,1.415728 0.966122,1.718728 0.31039,0.303 1.520114,0.551422 1.741505,0.924432 0.221392,0.37301 -0.139983,1.553923 -0.02268,1.971523 0.117306,0.4176 1.040746,1.2376 1.045972,1.67133 0.0052,0.43374 -0.898191,1.27575 -1.005401,1.69605 -0.107211,0.42031 0.282511,1.59217 0.07017,1.97041 -0.212341,0.37823 -1.415728,0.65573 -1.718728,0.96612 z" />
      <path
         sodipodi:type="star"
         style="fill:#000055;fill-opacity:1;stroke:#000055;stroke-width:0.314603;stroke-miterlimit:4;stroke-dasharray:none;stroke-opacity:1"
         id="path1378-8-2"
         sodipodi:sides="12"
         sodipodi:cx="23.865347"
         sodipodi:cy="91.520866"
         sodipodi:r1="6.5057588"
         sodipodi:r2="7.3098412"
         sodipodi:arg1="0.77335055"
         sodipodi:arg2="1.0351499"
         inkscape:flatsided="false"
         inkscape:rounded="0.22"
         inkscape:randomized="0"
         inkscape:transform-center-x="0.50297543"
         inkscape:transform-center-y="-0.43186063"
         d="m 28.5207,96.065378 c -0.303,0.31039 -0.551422,1.520113 -0.924432,1.741505 -0.37301,0.221392 -1.553922,-0.139984 -1.971523,-0.02268 -0.4176,0.117306 -1.237602,1.040746 -1.671334,1.045972 -0.433732,0.0052 -1.275744,-0.89819 -1.69605,-1.005401 -0.420305,-0.10721 -1.592168,0.282512 -1.970404,0.07017 -0.378235,-0.21234 -0.655731,-1.415728 -0.966121,-1.718727 -0.310391,-0.303 -1.520114,-0.551422 -1.741506,-0.924432 -0.221391,-0.373011 0.139984,-1.553923 0.02268,-1.971523 -0.117306,-0.417601 -1.040746,-1.237602 -1.045972,-1.671334 -0.0052,-0.433733 0.898191,-1.275745 1.005401,-1.69605 0.107211,-0.420306 -0.282511,-1.592168 -0.07017,-1.970404 0.212341,-0.378236 1.415728,-0.655732 1.718728,-0.966122 0.303,-0.31039 0.551421,-1.520114 0.924432,-1.741505 0.37301,-0.221392 1.553922,0.139983 1.971522,0.02268 0.417601,-0.117305 1.237602,-1.040746 1.671335,-1.045971 0.433732,-0.0052 1.275744,0.89819 1.69605,1.005401 0.420305,0.10721 1.592167,-0.282512 1.970403,-0.07017 0.378236,0.21234 0.655732,1.415727 0.966122,1.718727 0.31039,0.303 1.520114,0.551422 1.741505,0.924432 0.221392,0.37301 -0.139983,1.553922 -0.02268,1.971523 0.117306,0.417601 1.040746,1.237602 1.045972,1.671334 0.0052,0.433732 -0.898191,1.275744 -1.005401,1.69605 -0.107211,0.420306 0.282511,1.592168 0.07017,1.970404 -0.212341,0.378236 -1.415728,0.655732 -1.718728,0.966122 z" />
      <path
         sodipodi:type="star"
         style="fill:#818181;fill-opacity:1;stroke:#808080;stroke-width:0.314603;stroke-miterlimit:4;stroke-dasharray:none;stroke-opacity:1"
         id="path1378-8-8-8-5"
         sodipodi:sides="12"
         sodipodi:cx="29.233994"
         sodipodi:cy="96.928436"
         sodipodi:r1="6.5057588"
         sodipodi:r2="7.3098412"
         sodipodi:arg1="0.77335055"
         sodipodi:arg2="1.0351499"
         inkscape:flatsided="false"
         inkscape:rounded="0.22"
         inkscape:randomized="0"
         inkscape:transform-center-x="0.50297589"
         inkscape:transform-center-y="-0.43186588"
         d="m 33.889347,101.47295 c -0.303,0.31039 -0.551422,1.52011 -0.924432,1.7415 -0.373011,0.22139 -1.553922,-0.13998 -1.971523,-0.0227 -0.417601,0.1173 -1.237602,1.04074 -1.671334,1.04597 -0.433732,0.005 -1.275745,-0.89819 -1.69605,-1.0054 -0.420306,-0.10721 -1.592168,0.28251 -1.970404,0.0702 -0.378236,-0.21234 -0.655732,-1.41573 -0.966122,-1.71873 -0.31039,-0.303 -1.520113,-0.55142 -1.741505,-0.92443 -0.221392,-0.37301 0.139983,-1.553925 0.02268,-1.971525 -0.117306,-0.417601 -1.040746,-1.237602 -1.045972,-1.671334 -0.0052,-0.433733 0.89819,-1.275745 1.005401,-1.69605 0.10721,-0.420306 -0.282512,-1.592168 -0.07017,-1.970404 0.21234,-0.378236 1.415727,-0.655732 1.718727,-0.966122 0.303,-0.31039 0.551422,-1.520114 0.924432,-1.741505 0.373011,-0.221392 1.553922,0.139983 1.971523,0.02268 0.417601,-0.117305 1.237602,-1.040746 1.671334,-1.045971 0.433732,-0.0052 1.275745,0.89819 1.69605,1.0054 0.420306,0.107211 1.592168,-0.282511 1.970404,-0.07017 0.378236,0.212341 0.655732,1.415728 0.966122,1.718728 0.31039,0.303 1.520113,0.551422 1.741505,0.924432 0.221392,0.37301 -0.139983,1.553922 -0.02268,1.971523 0.117306,0.4176 1.040747,1.237602 1.045972,1.671334 0.0052,0.433732 -0.89819,1.275744 -1.005401,1.69605 -0.10721,0.420306 0.282512,1.592168 0.07017,1.970408 -0.21234,0.37823 -1.415727,0.65573 -1.718727,0.96612 z" />
      <path
         sodipodi:type="star"
         style="fill:#000055;fill-opacity:1;stroke:#000055;stroke-width:0.314603;stroke-miterlimit:4;stroke-dasharray:none;stroke-opacity:1"
         id="path1378-8-8-85-6"
         sodipodi:sides="12"
         sodipodi:cx="18.587805"
         sodipodi:cy="97.007881"
         sodipodi:r1="6.5057588"
         sodipodi:r2="7.3098412"
         sodipodi:arg1="0.77335055"
         sodipodi:arg2="1.0351499"
         inkscape:flatsided="false"
         inkscape:rounded="0.22"
         inkscape:randomized="0"
         inkscape:transform-center-x="0.50297677"
         inkscape:transform-center-y="-0.43185961"
         d="m 23.243158,101.55239 c -0.303,0.31039 -0.551422,1.52012 -0.924432,1.74151 -0.37301,0.22139 -1.553922,-0.13999 -1.971523,-0.0227 -0.4176,0.11731 -1.237602,1.04075 -1.671334,1.04597 -0.433732,0.005 -1.275744,-0.89819 -1.69605,-1.0054 -0.420306,-0.10721 -1.592168,0.28251 -1.970404,0.0702 -0.378236,-0.21234 -0.655731,-1.41573 -0.966122,-1.71873 -0.31039,-0.303 -1.520113,-0.55142 -1.741505,-0.92443 -0.221391,-0.37301 0.139984,-1.55392 0.02268,-1.97152 -0.117306,-0.417601 -1.040746,-1.237602 -1.045972,-1.671335 -0.0052,-0.433732 0.89819,-1.275744 1.005401,-1.69605 0.10721,-0.420305 -0.282512,-1.592167 -0.07017,-1.970403 0.21234,-0.378236 1.415728,-0.655732 1.718728,-0.966122 0.302999,-0.31039 0.551421,-1.520114 0.924432,-1.741505 0.37301,-0.221392 1.553922,0.139983 1.971522,0.02268 0.417601,-0.117306 1.237602,-1.040746 1.671335,-1.045972 0.433732,-0.0052 1.275744,0.898191 1.69605,1.005401 0.420305,0.107211 1.592167,-0.282511 1.970403,-0.07017 0.378236,0.212341 0.655732,1.415728 0.966122,1.718728 0.31039,0.303 1.520114,0.551422 1.741505,0.924432 0.221392,0.37301 -0.139983,1.553922 -0.02268,1.971523 0.117305,0.4176 1.040746,1.237602 1.045971,1.671334 0.0052,0.433732 -0.89819,1.275744 -1.0054,1.69605 -0.107211,0.420305 0.282511,1.592163 0.07017,1.970403 -0.212341,0.37824 -1.415728,0.65573 -1.718728,0.96612 z" />
      <path
         sodipodi:type="star"
         style="fill:#ffffff;fill-opacity:0.99;stroke:#808080;stroke-width:0.314603;stroke-miterlimit:4;stroke-dasharray:none;stroke-opacity:1"
         id="path1378-5"
         sodipodi:sides="12"
         sodipodi:cx="23.573208"
         sodipodi:cy="96.965897"
         sodipodi:r1="6.5057588"
         sodipodi:r2="7.3098412"
         sodipodi:arg1="0.77335055"
         sodipodi:arg2="1.0351499"
         inkscape:flatsided="false"
         inkscape:rounded="0.22"
         inkscape:randomized="0"
         inkscape:transform-center-x="0.50297567"
         inkscape:transform-center-y="-0.43186486"
         d="m 28.228561,101.51041 c -0.303,0.31039 -0.551422,1.52011 -0.924432,1.7415 -0.37301,0.22139 -1.553922,-0.13998 -1.971523,-0.0227 -0.4176,0.1173 -1.237602,1.04074 -1.671334,1.04597 -0.433732,0.005 -1.275744,-0.89819 -1.69605,-1.0054 -0.420305,-0.10721 -1.592168,0.28251 -1.970404,0.0702 -0.378236,-0.21234 -0.655731,-1.41573 -0.966122,-1.71873 -0.31039,-0.303 -1.520113,-0.55142 -1.741505,-0.92443 -0.221391,-0.37301 0.139984,-1.553924 0.02268,-1.971525 -0.117306,-0.417601 -1.040746,-1.237602 -1.045972,-1.671334 -0.0052,-0.433732 0.898191,-1.275744 1.005401,-1.69605 0.107211,-0.420306 -0.282511,-1.592168 -0.07017,-1.970404 0.212341,-0.378236 1.415728,-0.655732 1.718728,-0.966122 0.302999,-0.31039 0.551421,-1.520113 0.924432,-1.741505 0.37301,-0.221392 1.553922,0.139984 1.971522,0.02268 0.417601,-0.117306 1.237602,-1.040746 1.671335,-1.045972 0.433732,-0.0052 1.275744,0.89819 1.69605,1.005401 0.420305,0.10721 1.592167,-0.282512 1.970403,-0.07017 0.378236,0.21234 0.655732,1.415728 0.966122,1.718727 0.31039,0.303 1.520114,0.551422 1.741505,0.924432 0.221392,0.373011 -0.139983,1.553923 -0.02268,1.971523 0.117306,0.417601 1.040746,1.237602 1.045972,1.671334 0.0052,0.433733 -0.898191,1.275745 -1.005401,1.69605 -0.107211,0.420306 0.282511,1.592168 0.07017,1.970408 -0.212341,0.37823 -1.415728,0.65573 -1.718728,0.96612 z" />
      <ellipse
         style="fill:#818181;fill-opacity:1;stroke:#808080;stroke-width:0.341084;stroke-miterlimit:4;stroke-dasharray:none;stroke-opacity:1"
         id="path1380-7"
         cx="23.573212"
         cy="97.161331"
         rx="1.7215592"
         ry="1.6202909"
         inkscape:transform-center-x="0.089309702"
         inkscape:transform-center-y="-0.17861122" />
    </g>
    <g
       id="rose_r">
      <animateTransform attributeName="transform"
attributeType="XML"
type="rotate"
from="0 49 96"
to="360 50 97"
dur="10s"
repeatCount="indefinite"/>
      <path
         sodipodi:type="star"
         style="fill:#000055;fill-opacity:1;stroke:#000055;stroke-width:0.314603;stroke-miterlimit:4;stroke-dasharray:none;stroke-opacity:1"
         id="path1378-8-8-81-6"
         sodipodi:sides="12"
         sodipodi:cx="49.642017"
         sodipodi:cy="101.73361"
         sodipodi:r1="6.5057588"
         sodipodi:r2="7.3098412"
         sodipodi:arg1="0.77335055"
         sodipodi:arg2="1.0351499"
         inkscape:flatsided="false"
         inkscape:rounded="0.22"
         inkscape:randomized="0"
         inkscape:transform-center-x="0.50297543"
         inkscape:transform-center-y="-0.43186006"
         d="m 54.297371,106.27812 c -0.303,0.31039 -0.551422,1.52012 -0.924432,1.74151 -0.373011,0.22139 -1.553923,-0.13998 -1.971523,-0.0227 -0.417601,0.11731 -1.237602,1.04075 -1.671334,1.04597 -0.433733,0.005 -1.275745,-0.89819 -1.69605,-1.0054 -0.420306,-0.10721 -1.592168,0.28251 -1.970404,0.0702 -0.378236,-0.21234 -0.655732,-1.41572 -0.966122,-1.71872 -0.31039,-0.303 -1.520114,-0.55143 -1.741505,-0.92444 -0.221392,-0.37301 0.139983,-1.55392 0.02268,-1.97152 -0.117305,-0.4176 -1.040746,-1.2376 -1.045971,-1.67133 -0.0052,-0.43374 0.89819,-1.27575 1.005401,-1.69605 0.10721,-0.420309 -0.282512,-1.592171 -0.07017,-1.970407 0.21234,-0.378236 1.415727,-0.655732 1.718727,-0.966122 0.303,-0.31039 0.551422,-1.520114 0.924432,-1.741506 0.37301,-0.221391 1.553922,0.139984 1.971523,0.02268 0.417601,-0.117306 1.237602,-1.040746 1.671334,-1.045972 0.433732,-0.0052 1.275744,0.898191 1.69605,1.005401 0.420306,0.107211 1.592168,-0.282511 1.970404,-0.07017 0.378236,0.212341 0.655732,1.415728 0.966122,1.718728 0.31039,0.303 1.520113,0.551422 1.741505,0.924432 0.221392,0.37301 -0.139984,1.553922 -0.02268,1.971523 0.117306,0.417596 1.040746,1.237606 1.045972,1.671336 0.0052,0.43373 -0.89819,1.27574 -1.005401,1.69605 -0.10721,0.4203 0.282512,1.59217 0.07017,1.9704 -0.21234,0.37824 -1.415728,0.65573 -1.718727,0.96612 z" />
      <path
         sodipodi:type="star"
         style="fill:#000055;fill-opacity:1;stroke:#000055;stroke-width:0.314603;stroke-miterlimit:4;stroke-dasharray:none;stroke-opacity:1"
         id="path1378-8-2-6"
         sodipodi:sides="12"
         sodipodi:cx="49.642017"
         sodipodi:cy="90.94725"
         sodipodi:r1="6.5057588"
         sodipodi:r2="7.3098412"
         sodipodi:arg1="0.77335055"
         sodipodi:arg2="1.0351499"
         inkscape:flatsided="false"
         inkscape:rounded="0.22"
         inkscape:randomized="0"
         inkscape:transform-center-x="0.50297543"
         inkscape:transform-center-y="-0.43186063"
         d="m 54.297371,95.491762 c -0.303,0.31039 -0.551422,1.520113 -0.924432,1.741505 -0.373011,0.221392 -1.553923,-0.139984 -1.971523,-0.02268 -0.417601,0.117306 -1.237602,1.040746 -1.671334,1.045972 -0.433733,0.0052 -1.275745,-0.89819 -1.69605,-1.005401 -0.420306,-0.10721 -1.592168,0.282512 -1.970404,0.07017 -0.378236,-0.21234 -0.655732,-1.415728 -0.966122,-1.718727 -0.31039,-0.303 -1.520114,-0.551422 -1.741505,-0.924432 -0.221392,-0.373011 0.139983,-1.553923 0.02268,-1.971523 -0.117305,-0.417601 -1.040746,-1.237602 -1.045971,-1.671334 -0.0052,-0.433733 0.89819,-1.275745 1.005401,-1.69605 0.10721,-0.420306 -0.282512,-1.592168 -0.07017,-1.970404 0.21234,-0.378236 1.415727,-0.655732 1.718727,-0.966122 0.303,-0.31039 0.551422,-1.520114 0.924432,-1.741505 0.37301,-0.221392 1.553922,0.139983 1.971523,0.02268 0.417601,-0.117305 1.237602,-1.040746 1.671334,-1.045971 0.433732,-0.0052 1.275744,0.89819 1.69605,1.005401 0.420306,0.10721 1.592168,-0.282512 1.970404,-0.07017 0.378236,0.21234 0.655732,1.415727 0.966122,1.718727 0.31039,0.303 1.520113,0.551422 1.741505,0.924432 0.221392,0.37301 -0.139984,1.553922 -0.02268,1.971523 0.117306,0.417601 1.040746,1.237602 1.045972,1.671334 0.0052,0.433732 -0.89819,1.275744 -1.005401,1.69605 -0.10721,0.420306 0.282512,1.592168 0.07017,1.970404 -0.21234,0.378236 -1.415728,0.655732 -1.718727,0.966122 z" />
      <path
         sodipodi:type="star"
         style="fill:#000055;fill-opacity:1;stroke:#000055;stroke-width:0.314603;stroke-miterlimit:4;stroke-dasharray:none;stroke-opacity:1"
         id="path1378-8-8-8-5-1"
         sodipodi:sides="12"
         sodipodi:cx="55.010662"
         sodipodi:cy="96.354813"
         sodipodi:r1="6.5057588"
         sodipodi:r2="7.3098412"
         sodipodi:arg1="0.77335055"
         sodipodi:arg2="1.0351499"
         inkscape:flatsided="false"
         inkscape:rounded="0.22"
         inkscape:randomized="0"
         inkscape:transform-center-x="0.50297589"
         inkscape:transform-center-y="-0.43186588"
         d="m 59.666015,100.89932 c -0.303,0.31039 -0.551421,1.52012 -0.924432,1.74151 -0.37301,0.22139 -1.553922,-0.13998 -1.971523,-0.0227 -0.4176,0.11731 -1.237602,1.04075 -1.671334,1.04597 -0.433732,0.005 -1.275744,-0.89819 -1.69605,-1.0054 -0.420305,-0.10721 -1.592167,0.28251 -1.970403,0.0702 -0.378236,-0.21234 -0.655732,-1.41572 -0.966122,-1.71872 -0.31039,-0.303 -1.520114,-0.55143 -1.741505,-0.92444 -0.221392,-0.373006 0.139983,-1.553918 0.02268,-1.971519 -0.117306,-0.417601 -1.040746,-1.237602 -1.045972,-1.671334 -0.0052,-0.433732 0.898191,-1.275744 1.005401,-1.69605 0.107211,-0.420306 -0.282511,-1.592168 -0.07017,-1.970404 0.212341,-0.378236 1.415728,-0.655732 1.718728,-0.966122 0.303,-0.31039 0.551422,-1.520113 0.924432,-1.741505 0.37301,-0.221392 1.553922,0.139984 1.971523,0.02268 0.4176,-0.117306 1.237602,-1.040746 1.671334,-1.045972 0.433732,-0.0052 1.275744,0.89819 1.69605,1.005401 0.420305,0.10721 1.592168,-0.282512 1.970404,-0.07017 0.378235,0.21234 0.655731,1.415728 0.966121,1.718727 0.310391,0.303 1.520114,0.551422 1.741506,0.924432 0.221391,0.373011 -0.139984,1.553923 -0.02268,1.971523 0.117306,0.417601 1.040746,1.237602 1.045972,1.671334 0.0052,0.433733 -0.898191,1.275745 -1.005401,1.69605 -0.107211,0.420306 0.282511,1.592168 0.07017,1.970404 -0.212341,0.378238 -1.415728,0.655728 -1.718728,0.966118 z" />
      <path
         sodipodi:type="star"
         style="fill:#818181;fill-opacity:1;stroke:#818181;stroke-width:0.314603;stroke-miterlimit:4;stroke-dasharray:none;stroke-opacity:1"
         id="path1378-8-8-85-6-1"
         sodipodi:sides="12"
         sodipodi:cx="44.364475"
         sodipodi:cy="96.434265"
         sodipodi:r1="6.5057588"
         sodipodi:r2="7.3098412"
         sodipodi:arg1="0.77335055"
         sodipodi:arg2="1.0351499"
         inkscape:flatsided="false"
         inkscape:rounded="0.22"
         inkscape:randomized="0"
         inkscape:transform-center-x="0.50297677"
         inkscape:transform-center-y="-0.43185961"
         d="m 49.019828,100.97878 c -0.302999,0.31039 -0.551421,1.52011 -0.924432,1.7415 -0.37301,0.22139 -1.553922,-0.13998 -1.971522,-0.0227 -0.417601,0.11731 -1.237602,1.04075 -1.671334,1.04598 -0.433733,0.005 -1.275745,-0.89819 -1.69605,-1.00541 -0.420306,-0.10721 -1.592168,0.28252 -1.970404,0.0702 -0.378236,-0.21234 -0.655732,-1.41573 -0.966122,-1.71873 -0.31039,-0.303 -1.520114,-0.55142 -1.741505,-0.92443 -0.221392,-0.373014 0.139983,-1.553926 0.02268,-1.971526 -0.117305,-0.417601 -1.040746,-1.237602 -1.045971,-1.671335 -0.0052,-0.433732 0.89819,-1.275744 1.0054,-1.69605 0.107211,-0.420305 -0.282511,-1.592167 -0.07017,-1.970403 0.212341,-0.378236 1.415728,-0.655732 1.718728,-0.966122 0.303,-0.31039 0.551422,-1.520114 0.924432,-1.741505 0.37301,-0.221392 1.553922,0.139983 1.971523,0.02268 0.4176,-0.117306 1.237602,-1.040746 1.671334,-1.045972 0.433732,-0.0052 1.275744,0.898191 1.69605,1.005401 0.420306,0.107211 1.592168,-0.282511 1.970404,-0.07017 0.378236,0.212341 0.655732,1.415728 0.966122,1.718728 0.31039,0.303 1.520113,0.551422 1.741505,0.924432 0.221392,0.37301 -0.139984,1.553922 -0.02268,1.971523 0.117306,0.4176 1.040746,1.237602 1.045972,1.671334 0.0052,0.433732 -0.89819,1.275744 -1.005401,1.69605 -0.10721,0.420305 0.282512,1.592168 0.07017,1.970399 -0.21234,0.37824 -1.415728,0.65574 -1.718728,0.96613 z" />
      <path
         sodipodi:type="star"
         style="fill:#ffffff;fill-opacity:0.99;stroke:#808080;stroke-width:0.314603;stroke-miterlimit:4;stroke-dasharray:none;stroke-opacity:1"
         id="path1378-5-3"
         sodipodi:sides="12"
         sodipodi:cx="49.349876"
         sodipodi:cy="96.392281"
         sodipodi:r1="6.5057588"
         sodipodi:r2="7.3098412"
         sodipodi:arg1="0.77335055"
         sodipodi:arg2="1.0351499"
         inkscape:flatsided="false"
         inkscape:rounded="0.22"
         inkscape:randomized="0"
         inkscape:transform-center-x="0.50297567"
         inkscape:transform-center-y="-0.43186486"
         d="m 54.00523,100.93679 c -0.303,0.31039 -0.551422,1.52012 -0.924432,1.74151 -0.373011,0.22139 -1.553923,-0.13999 -1.971523,-0.0227 -0.417601,0.11731 -1.237602,1.04075 -1.671334,1.04597 -0.433733,0.005 -1.275745,-0.89819 -1.69605,-1.0054 -0.420306,-0.10721 -1.592168,0.28251 -1.970404,0.0702 -0.378236,-0.21234 -0.655732,-1.41573 -0.966122,-1.71873 -0.31039,-0.303 -1.520114,-0.55142 -1.741505,-0.92443 -0.221392,-0.373008 0.139983,-1.55392 0.02268,-1.971521 -0.117305,-0.417601 -1.040746,-1.237602 -1.045971,-1.671334 -0.0052,-0.433732 0.89819,-1.275744 1.005401,-1.69605 0.10721,-0.420306 -0.282512,-1.592168 -0.07017,-1.970404 0.21234,-0.378236 1.415727,-0.655732 1.718727,-0.966122 0.303,-0.31039 0.551422,-1.520113 0.924432,-1.741505 0.37301,-0.221392 1.553922,0.139983 1.971523,0.02268 0.417601,-0.117306 1.237602,-1.040746 1.671334,-1.045972 0.433732,-0.0052 1.275744,0.89819 1.69605,1.005401 0.420306,0.10721 1.592168,-0.282512 1.970404,-0.07017 0.378236,0.21234 0.655732,1.415728 0.966122,1.718727 0.31039,0.303 1.520113,0.551422 1.741505,0.924432 0.221392,0.373011 -0.139983,1.553923 -0.02268,1.971523 0.117306,0.417601 1.040746,1.237602 1.045972,1.671334 0.0052,0.433733 -0.89819,1.275745 -1.005401,1.69605 -0.10721,0.420306 0.282512,1.592168 0.07017,1.970404 -0.21234,0.37824 -1.415728,0.65573 -1.718727,0.96612 z" />
      <ellipse
         style="fill:#818181;fill-opacity:1;stroke:#808080;stroke-width:0.341084;stroke-miterlimit:4;stroke-dasharray:none;stroke-opacity:1"
         id="path1380-7-4"
         cx="49.34988"
         cy="96.587715"
         rx="1.7215592"
         ry="1.6202909"
         inkscape:transform-center-x="0.089309702"
         inkscape:transform-center-y="-0.17861122" />
    </g>
    <g
       id="rose_b">
      <animateTransform attributeName="transform"
attributeType="XML"
type="rotate"
from="0 37 114"
to="360 38 115"
dur="10s"
repeatCount="indefinite"/>
      <path
         sodipodi:type="star"
         style="fill:#000055;fill-opacity:1;stroke:#000055;stroke-width:0.314603;stroke-miterlimit:4;stroke-dasharray:none;stroke-opacity:1"
         id="path1378-8-8-8-3"
         sodipodi:sides="12"
         sodipodi:cx="42.735195"
         sodipodi:cy="114.5539"
         sodipodi:r1="6.5057588"
         sodipodi:r2="7.3098412"
         sodipodi:arg1="0.77335055"
         sodipodi:arg2="1.0351499"
         inkscape:flatsided="false"
         inkscape:rounded="0.22"
         inkscape:randomized="0"
         inkscape:transform-center-x="0.50297589"
         inkscape:transform-center-y="-0.43186588"
         d="m 47.390548,119.09841 c -0.302999,0.31039 -0.551421,1.52012 -0.924432,1.74151 -0.37301,0.22139 -1.553922,-0.13999 -1.971522,-0.0227 -0.417601,0.11731 -1.237602,1.04075 -1.671335,1.04597 -0.433732,0.005 -1.275744,-0.89819 -1.69605,-1.0054 -0.420305,-0.10721 -1.592167,0.28251 -1.970403,0.0702 -0.378236,-0.21234 -0.655732,-1.41573 -0.966122,-1.71873 -0.31039,-0.30299 -1.520114,-0.55142 -1.741505,-0.92443 -0.221392,-0.37301 0.139983,-1.55392 0.02268,-1.97152 -0.117306,-0.4176 -1.040746,-1.2376 -1.045972,-1.67133 -0.0052,-0.43374 0.898191,-1.27575 1.005401,-1.69605 0.107211,-0.42031 -0.282511,-1.59217 -0.07017,-1.97041 0.212341,-0.37823 1.415728,-0.65573 1.718728,-0.96612 0.303,-0.31039 0.551422,-1.52011 0.924432,-1.7415 0.37301,-0.2214 1.553922,0.13998 1.971523,0.0227 0.4176,-0.1173 1.237602,-1.04074 1.671334,-1.04597 0.433732,-0.005 1.275744,0.89819 1.69605,1.0054 0.420305,0.10721 1.592168,-0.28251 1.970404,-0.0702 0.378236,0.21234 0.655731,1.41573 0.966122,1.71873 0.31039,0.303 1.520113,0.55142 1.741505,0.92443 0.221391,0.37301 -0.139984,1.55392 -0.02268,1.97152 0.117306,0.4176 1.040746,1.23761 1.045972,1.67134 0.0052,0.43373 -0.898191,1.27574 -1.005401,1.69605 -0.107211,0.4203 0.282512,1.59217 0.07017,1.9704 -0.212341,0.37824 -1.415728,0.65573 -1.718728,0.96612 z" />
      <path
         sodipodi:type="star"
         style="fill:#000055;fill-opacity:1;stroke:#000055;stroke-width:0.314603;stroke-miterlimit:4;stroke-dasharray:none;stroke-opacity:1"
         id="path1378-8-8-85-1"
         sodipodi:sides="12"
         sodipodi:cx="32.089005"
         sodipodi:cy="114.63334"
         sodipodi:r1="6.5057588"
         sodipodi:r2="7.3098412"
         sodipodi:arg1="0.77335055"
         sodipodi:arg2="1.0351499"
         inkscape:flatsided="false"
         inkscape:rounded="0.22"
         inkscape:randomized="0"
         inkscape:transform-center-x="0.50297677"
         inkscape:transform-center-y="-0.43185961"
         d="m 36.744358,119.17785 c -0.303,0.31039 -0.551422,1.52011 -0.924432,1.74151 -0.373011,0.22139 -1.553922,-0.13999 -1.971523,-0.0227 -0.417601,0.1173 -1.237602,1.04074 -1.671334,1.04597 -0.433732,0.005 -1.275745,-0.89819 -1.69605,-1.0054 -0.420306,-0.10721 -1.592168,0.28251 -1.970404,0.0702 -0.378236,-0.21234 -0.655732,-1.41573 -0.966122,-1.71873 -0.31039,-0.303 -1.520113,-0.55142 -1.741505,-0.92443 -0.221392,-0.37301 0.139983,-1.55392 0.02268,-1.97152 -0.117306,-0.4176 -1.040746,-1.2376 -1.045972,-1.67134 -0.0052,-0.43373 0.89819,-1.27574 1.005401,-1.69605 0.10721,-0.4203 -0.282512,-1.59216 -0.07017,-1.9704 0.21234,-0.37824 1.415727,-0.65573 1.718727,-0.96612 0.303,-0.31039 0.551422,-1.52012 0.924432,-1.74151 0.373011,-0.22139 1.553922,0.13999 1.971523,0.0227 0.417601,-0.11731 1.237602,-1.04075 1.671334,-1.04597 0.433732,-0.005 1.275745,0.89819 1.69605,1.0054 0.420306,0.10721 1.592168,-0.28251 1.970404,-0.0702 0.378236,0.21234 0.655732,1.41573 0.966122,1.71873 0.31039,0.303 1.520113,0.55142 1.741505,0.92443 0.221392,0.37301 -0.139983,1.55392 -0.02268,1.97152 0.117306,0.4176 1.040746,1.2376 1.045972,1.67133 0.0052,0.43374 -0.89819,1.27575 -1.005401,1.69605 -0.10721,0.42031 0.282512,1.59217 0.07017,1.97041 -0.21234,0.37823 -1.415727,0.65573 -1.718727,0.96612 z" />
      <path
         sodipodi:type="star"
         style="fill:#000055;fill-opacity:1;stroke:#000055;stroke-width:0.314603;stroke-miterlimit:4;stroke-dasharray:none;stroke-opacity:1"
         id="path1378-8-8-3"
         sodipodi:sides="12"
         sodipodi:cx="37.366547"
         sodipodi:cy="119.93269"
         sodipodi:r1="6.5057588"
         sodipodi:r2="7.3098412"
         sodipodi:arg1="0.77335055"
         sodipodi:arg2="1.0351499"
         inkscape:flatsided="false"
         inkscape:rounded="0.22"
         inkscape:randomized="0"
         inkscape:transform-center-x="0.50297543"
         inkscape:transform-center-y="-0.43186006"
         d="m 42.0219,124.4772 c -0.303,0.31039 -0.551422,1.52012 -0.924432,1.74151 -0.37301,0.22139 -1.553922,-0.13998 -1.971523,-0.0227 -0.417601,0.11731 -1.237602,1.04075 -1.671334,1.04597 -0.433732,0.005 -1.275744,-0.89819 -1.69605,-1.0054 -0.420306,-0.10721 -1.592168,0.28251 -1.970404,0.0702 -0.378236,-0.21234 -0.655732,-1.41572 -0.966122,-1.71872 -0.31039,-0.303 -1.520113,-0.55143 -1.741505,-0.92444 -0.221392,-0.37301 0.139984,-1.55392 0.02268,-1.97152 -0.117306,-0.4176 -1.040746,-1.2376 -1.045972,-1.67133 -0.0052,-0.43373 0.89819,-1.27575 1.005401,-1.69605 0.10721,-0.42031 -0.282512,-1.59217 -0.07017,-1.97041 0.21234,-0.37823 1.415728,-0.65573 1.718727,-0.96612 0.303,-0.31039 0.551422,-1.52011 0.924432,-1.7415 0.373011,-0.22139 1.553923,0.13998 1.971523,0.0227 0.417601,-0.1173 1.237602,-1.04074 1.671334,-1.04597 0.433733,-0.005 1.275745,0.89819 1.69605,1.0054 0.420306,0.10721 1.592168,-0.28251 1.970404,-0.0702 0.378236,0.21234 0.655732,1.41573 0.966122,1.71873 0.31039,0.303 1.520114,0.55142 1.741505,0.92443 0.221392,0.37301 -0.139983,1.55392 -0.02268,1.97153 0.117305,0.4176 1.040746,1.2376 1.045971,1.67133 0.0052,0.43373 -0.89819,1.27574 -1.005401,1.69605 -0.10721,0.4203 0.282512,1.59217 0.07017,1.9704 -0.21234,0.37824 -1.415727,0.65573 -1.718727,0.96612 z" />
      <path
         sodipodi:type="star"
         style="fill:#818181;fill-opacity:1;stroke:#818181;stroke-width:0.314603;stroke-miterlimit:4;stroke-dasharray:none;stroke-opacity:1"
         id="path1378-8-5"
         sodipodi:sides="12"
         sodipodi:cx="37.366547"
         sodipodi:cy="109.14632"
         sodipodi:r1="6.5057588"
         sodipodi:r2="7.3098412"
         sodipodi:arg1="0.77335055"
         sodipodi:arg2="1.0351499"
         inkscape:flatsided="false"
         inkscape:rounded="0.22"
         inkscape:randomized="0"
         inkscape:transform-center-x="0.50297543"
         inkscape:transform-center-y="-0.43186063"
         d="m 42.0219,113.69083 c -0.303,0.31039 -0.551422,1.52011 -0.924432,1.7415 -0.37301,0.22139 -1.553922,-0.13998 -1.971523,-0.0227 -0.417601,0.1173 -1.237602,1.04074 -1.671334,1.04597 -0.433732,0.005 -1.275744,-0.89819 -1.69605,-1.0054 -0.420306,-0.10721 -1.592168,0.28251 -1.970404,0.0702 -0.378236,-0.21234 -0.655732,-1.41573 -0.966122,-1.71873 -0.31039,-0.303 -1.520113,-0.55142 -1.741505,-0.92443 -0.221392,-0.37301 0.139984,-1.55392 0.02268,-1.97153 -0.117306,-0.4176 -1.040746,-1.2376 -1.045972,-1.67133 -0.0052,-0.43373 0.89819,-1.27574 1.005401,-1.69605 0.10721,-0.4203 -0.282512,-1.59217 -0.07017,-1.9704 0.21234,-0.37824 1.415728,-0.65573 1.718727,-0.96612 0.303,-0.31039 0.551422,-1.52012 0.924432,-1.74151 0.373011,-0.22139 1.553923,0.13998 1.971523,0.0227 0.417601,-0.11731 1.237602,-1.04075 1.671334,-1.04597 0.433733,-0.005 1.275745,0.89819 1.69605,1.0054 0.420306,0.10721 1.592168,-0.28251 1.970404,-0.0702 0.378236,0.21234 0.655732,1.41572 0.966122,1.71872 0.31039,0.303 1.520114,0.55143 1.741505,0.92444 0.221392,0.37301 -0.139983,1.55392 -0.02268,1.97152 0.117305,0.4176 1.040746,1.2376 1.045971,1.67133 0.0052,0.43373 -0.89819,1.27575 -1.005401,1.69605 -0.10721,0.42031 0.282512,1.59217 0.07017,1.97041 -0.21234,0.37823 -1.415727,0.65573 -1.718727,0.96612 z" />
      <path
         sodipodi:type="star"
         style="fill:#ffffff;fill-opacity:0.99;stroke:#808080;stroke-width:0.314603;stroke-miterlimit:4;stroke-dasharray:none;stroke-opacity:1"
         id="path1378-9"
         sodipodi:sides="12"
         sodipodi:cx="37.074409"
         sodipodi:cy="114.59136"
         sodipodi:r1="6.5057588"
         sodipodi:r2="7.3098412"
         sodipodi:arg1="0.77335055"
         sodipodi:arg2="1.0351499"
         inkscape:flatsided="false"
         inkscape:rounded="0.22"
         inkscape:randomized="0"
         inkscape:transform-center-x="0.50297567"
         inkscape:transform-center-y="-0.43186486"
         d="m 41.729763,119.13587 c -0.303,0.31039 -0.551422,1.52012 -0.924432,1.74151 -0.373011,0.22139 -1.553922,-0.13998 -1.971523,-0.0227 -0.417601,0.11731 -1.237602,1.04075 -1.671334,1.04597 -0.433732,0.005 -1.275745,-0.89819 -1.69605,-1.0054 -0.420306,-0.10721 -1.592168,0.28251 -1.970404,0.0702 -0.378236,-0.21234 -0.655732,-1.41572 -0.966122,-1.71872 -0.31039,-0.303 -1.520113,-0.55143 -1.741505,-0.92444 -0.221392,-0.37301 0.139983,-1.55392 0.02268,-1.97152 -0.117306,-0.4176 -1.040746,-1.2376 -1.045972,-1.67133 -0.0052,-0.43374 0.89819,-1.27575 1.005401,-1.69605 0.10721,-0.42031 -0.282512,-1.59217 -0.07017,-1.97041 0.21234,-0.37823 1.415727,-0.65573 1.718727,-0.96612 0.303,-0.31039 0.551422,-1.52011 0.924432,-1.7415 0.373011,-0.2214 1.553922,0.13998 1.971523,0.0227 0.417601,-0.1173 1.237602,-1.04074 1.671334,-1.04597 0.433732,-0.005 1.275745,0.89819 1.69605,1.0054 0.420306,0.10721 1.592168,-0.28251 1.970404,-0.0702 0.378236,0.21234 0.655732,1.41573 0.966122,1.71873 0.31039,0.303 1.520113,0.55142 1.741505,0.92443 0.221392,0.37301 -0.139983,1.55392 -0.02268,1.97152 0.117306,0.4176 1.040746,1.23761 1.045972,1.67134 0.0052,0.43373 -0.89819,1.27574 -1.005401,1.69605 -0.10721,0.4203 0.282512,1.59217 0.07017,1.9704 -0.21234,0.37824 -1.415727,0.65573 -1.718727,0.96612 z" />
      <ellipse
         style="fill:#818181;fill-opacity:1;stroke:#808080;stroke-width:0.341084;stroke-miterlimit:4;stroke-dasharray:none;stroke-opacity:1"
         id="path1380-8"
         cx="37.074413"
         cy="114.78679"
         rx="1.7215592"
         ry="1.6202909"
         inkscape:transform-center-x="0.089309702"
         inkscape:transform-center-y="-0.17861122" />
    </g>
  </g>
</svg>
